<?xml version="1.0" encoding="UTF-8"?><svg id="Layer_2" xmlns="http://www.w3.org/2000/svg" viewBox="0 0 142 142"><defs><style>.cls-1{fill:#ebecf3;}.cls-2{fill:#2b2d42;}</style></defs><g id="Layer_1-2"><g><path class="cls-1" d="m59.46,34.77h23.08c.28,0,.53-.15.67-.39.14-.24.14-.53,0-.77l-11.54-19.99c-.14-.24-.39-.39-.67-.39s-.53.15-.67.39l-11.54,19.99c-.14.24-.14.53,0,.77.14.24.39.39.67.39Z"/><path class="cls-1" d="m29.61,59.25l-19.99,11.54c-.24.14-.39.39-.39.67s.15.53.39.67l19.99,11.54c.12.07.25.1.39.1s.27-.03.39-.1c.24-.14.39-.39.39-.67v-23.08c0-.28-.15-.53-.39-.67-.24-.14-.53-.14-.77,0Z"/><path class="cls-1" d="m71,54.75c-2.91,10.98-5.27,13.34-16.25,16.25,10.98,2.91,13.34,5.27,16.25,16.25,2.91-10.98,5.27-13.34,16.25-16.25-10.98-2.91-13.34-5.27-16.25-16.25Z"/><path class="cls-1" d="m82.55,110.23h-23.08c-.28,0-.53.15-.67.39-.14.24-.14.53,0,.77l11.54,19.99c.14.24.39.39.67.39s.53-.15.67-.39l11.54-19.99c.14-.24.14-.53,0-.77-.14-.24-.39-.39-.67-.39Z"/><path class="cls-1" d="m112.39,59.25c-.24-.14-.53-.14-.77,0-.24.14-.39.39-.39.67v23.08c0,.28.15.53.39.67.12.07.25.1.39.1s.27-.03.39-.1l19.99-11.54c.24-.14.39-.39.39-.67s-.15-.53-.39-.67l-19.99-11.54Z"/><path class="cls-2" d="m131.97,47.33h-37.31V10.03c0-5.54-4.49-10.03-10.03-10.03h-27.28c-5.54,0-10.03,4.49-10.03,10.03v37.31H10.03c-5.54,0-10.03,4.49-10.03,10.03v27.28c0,5.54,4.49,10.03,10.03,10.03h37.31v37.31c0,5.54,4.49,10.03,10.03,10.03h27.28c5.54,0,10.03-4.49,10.03-10.03v-37.31h37.31c5.54,0,10.03-4.49,10.03-10.03v-27.28c0-5.54-4.49-10.03-10.03-10.03ZM30.77,83c0,.28-.15.53-.39.67-.12.07-.25.1-.39.1s-.27-.03-.39-.1l-19.99-11.54c-.24-.14-.39-.39-.39-.67s.15-.53.39-.67l19.99-11.54c.24-.14.53-.14.77,0,.24.14.39.39.39.67v23.08Zm28.02-49.39l11.54-19.99c.14-.24.39-.39.67-.39s.53.15.67.39l11.54,19.99c.14.24.14.53,0,.77-.14.24-.39.39-.67.39h-23.08c-.28,0-.53-.15-.67-.39-.14-.24-.14-.53,0-.77Zm24.42,77.77l-11.54,19.99c-.14.24-.39.39-.67.39s-.53-.15-.67-.39l-11.54-19.99c-.14-.24-.14-.53,0-.77.14-.24.39-.39.67-.39h23.08c.28,0,.53.15.67.39.14.24.14.53,0,.77Zm-12.22-24.14c-2.91-10.98-5.27-13.34-16.25-16.25,10.98-2.91,13.34-5.27,16.25-16.25,2.91,10.98,5.27,13.34,16.25,16.25-10.98,2.91-13.34,5.27-16.25,16.25Zm61.38-15.12l-19.99,11.54c-.12.07-.25.1-.39.1s-.27-.03-.39-.1c-.24-.14-.39-.39-.39-.67v-23.08c0-.28.15-.53.39-.67.24-.14.53-.14.77,0l19.99,11.54c.24.14.39.39.39.67s-.15.53-.39.67Z"/></g></g></svg>